<svg width="233" height="240" viewBox="0 0 233 240" fill="none" xmlns="http://www.w3.org/2000/svg">
<path d="M218.888 138.373C212.884 131.511 206.673 124.416 204.084 116.431C198.425 98.9643 199.816 88.8112 201.91 73.4499C203.113 64.6443 204.611 53.689 204.981 38.71C205.413 21.2743 201.671 9.57314 193.875 3.93253C187.193 -0.899594 177.667 -1.16282 165.577 3.16165C156.733 6.32039 148.065 10.3252 139.686 14.1922C124.155 21.362 109.489 28.1307 97.6744 27.4225C93.6067 27.1781 88.6366 26.5576 82.883 25.8369C61.5358 23.167 32.304 19.5006 17.3434 31.7219C12.7305 35.4886 10.3739 42.038 10.1483 51.7461C9.94148 60.3762 11.4018 70.6547 12.8057 80.5947C15.062 96.5138 17.3936 112.978 12.9374 123.012C3.0472 145.305 -0.844936 162.973 1.04159 177.03C2.98452 191.533 11.0634 202.275 25.7357 209.871C34.6731 214.497 43.2785 215.731 52.3977 217.035C64.8074 218.808 78.8717 220.82 97.3234 231.801C106.242 237.109 114.108 239.654 121.948 239.654C124.587 239.654 127.226 239.365 129.902 238.795C142.03 236.213 154.953 227.808 170.585 212.353C178.626 204.4 188.297 199.775 197.654 195.3C208.459 190.135 219.628 184.796 228.089 174.31C238.769 161.08 229.117 150.056 218.895 138.386L218.888 138.373ZM18.4967 102.7C18.1895 95.5674 18.0955 88.4665 18.716 81.8544C19.7188 71.0871 22.5204 63.2279 27.2712 57.8317C33.6139 50.6305 43.103 45.3471 56.2773 41.687C67.6466 38.5283 79.6239 37.1307 90.1909 35.9023L91.8518 35.708C99.8429 34.7741 108.411 32.6996 117.473 30.5061C127.445 28.0931 137.761 25.5925 148.065 24.4518C149.902 24.2513 151.713 24.1447 153.449 24.1447C161.634 24.1447 168.535 26.4135 173.956 30.8884C179.541 35.4949 183.533 42.4266 185.821 51.4891C188.503 62.1186 190.127 70.335 191.7 78.282C192.715 83.4087 193.699 88.3913 194.915 93.6997C194.138 90.7227 193.405 87.8586 192.684 85.032C190.158 75.117 187.77 65.7599 183.696 53.1625C180.7 43.8994 175.824 36.9489 169.212 32.5054C162.781 28.1872 154.803 26.2881 145.489 26.871C134.02 27.5855 122.513 30.0235 111.381 32.3863C104.205 33.9092 97.4236 35.3445 90.943 36.2658C79.8119 37.8514 67.9913 39.8131 57.0106 43.4419C44.0306 47.7225 34.6105 53.5198 28.2113 61.1534C23.1597 67.1763 20.1576 75.7312 19.0294 87.2945C18.5405 92.277 18.4277 97.4664 18.4967 102.718V102.7ZM17.8887 101.333C17.3685 92.9915 17.0113 84.5933 17.6631 76.9534C18.5468 66.5934 21.2293 59.1228 25.8547 54.1152C32.0283 47.4342 41.229 42.6773 53.9834 39.5749C65.0017 36.8925 76.6781 35.9023 86.9819 35.0248C88.9687 34.8556 90.849 34.6989 92.6729 34.5297C101.698 33.7024 111.613 30.9761 122.105 28.0869C131.381 25.5361 140.977 22.8975 150.591 21.4122C153.104 21.0236 155.555 20.823 157.861 20.823C165.934 20.823 172.634 23.2109 177.773 27.9177C183.069 32.7686 186.686 40.07 188.535 49.6215C190.515 59.8498 191.65 68.0287 192.646 75.2486C193.662 82.5877 194.595 89.2938 196.206 96.7582C194.62 90.2339 193.448 84.2987 192.239 78.1567C190.666 70.2034 189.042 61.9807 186.354 51.3387C183.79 41.1856 179.115 33.6836 172.465 29.052C165.997 24.5458 157.767 22.8098 148.003 23.8878C137.667 25.0284 127.332 27.5354 117.342 29.9483C108.292 32.1418 99.7426 34.2101 91.7829 35.1376L90.122 35.3319C69.5269 37.7323 41.3167 41.0164 26.8513 57.4494C22.019 62.9333 19.1798 70.8991 18.1645 81.7855C17.5816 88.0027 17.6317 94.6398 17.8887 101.321V101.333ZM203.596 153.39C197.955 167.498 188.391 177.826 178.269 188.757C177.285 189.816 176.294 190.887 175.298 191.972C159.572 209.063 143.571 217.179 124.957 217.505C122.556 217.549 120.482 217.574 118.583 217.593C121.522 217.43 124.568 217.198 127.727 216.891C132.309 216.446 136.796 215.562 141.064 214.252C145.333 212.948 149.532 211.175 153.543 208.994C157.542 206.819 161.49 204.155 165.276 201.084C169.036 198.032 172.772 194.466 176.369 190.486C181.114 185.241 186.598 178.967 191.255 172.236C195.999 165.373 199.484 158.623 201.91 151.604C205.639 140.805 203.884 130.113 200.951 119.039C204.843 130.777 208.183 141.939 203.602 153.39H203.596ZM202.248 120.612C202.317 120.793 202.392 120.981 202.461 121.163C206.993 132.839 211.273 143.87 206.046 155.452C200.462 167.817 191.838 176.579 182.7 185.855C180.124 188.468 177.466 191.169 174.815 194.002C166.636 202.764 158.708 209.013 150.597 213.105C142.681 217.091 134.565 219.034 125.784 219.034C124.625 219.034 123.434 218.996 122.243 218.934C118.771 218.733 115.368 218.57 112.077 218.414C111.67 218.395 111.262 218.376 110.849 218.357C112.014 218.37 113.18 218.376 114.34 218.376C117.918 218.376 121.478 218.326 124.963 218.263C143.797 217.931 159.967 209.746 175.843 192.492C176.839 191.408 177.842 190.323 178.814 189.277C184.016 183.655 188.936 178.346 193.298 172.624C198.199 166.2 201.69 160.177 204.291 153.678C208.735 142.572 205.915 131.837 202.248 120.618V120.612ZM201.145 151.34C195.705 167.103 185.627 179.055 175.774 189.947C168.541 197.944 161.146 203.942 153.161 208.286C145.145 212.648 136.803 215.198 127.646 216.088C127.238 216.126 126.837 216.164 126.436 216.201C127.784 216.001 129.131 215.781 130.485 215.537C134.972 214.728 139.378 213.525 143.584 211.964C147.739 210.423 151.813 208.486 155.68 206.217C159.51 203.967 163.245 201.329 166.78 198.371C170.284 195.444 173.687 192.122 176.89 188.506C182.393 182.301 186.83 176.328 190.465 170.243C192.421 166.965 194.163 163.606 195.636 160.259C197.178 156.762 198.488 153.158 199.522 149.542C201.414 142.936 201.985 135.854 201.252 127.882C200.951 124.617 200.443 121.22 199.685 117.459C202.862 129.048 204.993 140.178 201.145 151.334V151.34ZM198.688 149.31C196.657 156.392 193.724 163.098 189.719 169.804C186.115 175.84 181.709 181.775 176.244 187.936C164.467 201.21 150.616 209.852 135.016 213.688C177.874 201.197 204.448 159.175 198.469 115.88C200.85 126.885 201.866 138.242 198.688 149.31ZM194.483 73.8448C193.875 66.5433 193.185 58.2704 191.675 47.735C189.926 35.5262 185.495 26.8146 178.507 21.8509C172.02 17.2381 163.446 15.9345 153.023 17.9714C143.803 19.7701 134.653 22.5967 125.803 25.323C114.183 28.9079 103.209 32.2923 93.4626 32.9441C90.8177 33.1196 87.9785 33.2637 84.9701 33.4079C74.7415 33.9155 63.1528 34.4921 52.216 36.7421C39.5054 39.3556 30.3172 43.7302 24.1374 50.1041C13.8211 60.7397 15.413 81.3718 16.9799 101.352C16.8483 99.8793 16.7167 98.394 16.5788 96.8961C14.7737 77.1101 12.906 56.6534 23.0343 46.6884C29.1765 40.6466 38.3209 36.6794 50.9938 34.5548C61.9369 32.7184 73.5318 32.568 83.7604 32.4301C87.5398 32.38 91.1123 32.3299 94.3212 32.1983C104.707 31.7658 116.621 27.6983 129.238 23.3926C137.812 20.4658 146.674 17.4387 155.618 15.3579C159.309 14.4993 162.813 14.0606 166.028 14.0606C173.994 14.0606 180.406 16.7054 185.094 21.9135C189.926 27.2847 192.909 35.3758 193.969 45.9551C195.084 57.111 195.36 65.6972 195.604 73.2682C195.974 84.7625 196.263 93.612 199.158 105.301C196.131 93.6746 195.385 84.7249 194.476 73.8385L194.483 73.8448ZM24.4445 50.4049C30.5679 44.0937 39.6809 39.7629 52.3037 37.162C63.2092 34.9183 74.7853 34.3417 84.9951 33.834C88.0036 33.6836 90.849 33.5457 93.5002 33.364C103.29 32.7122 114.29 29.3215 125.935 25.7304C134.772 23.0041 143.916 20.1838 153.111 18.385C156.238 17.7708 159.24 17.4637 162.036 17.4637C170.039 17.4637 176.583 19.9769 181.477 24.9281C186.523 30.036 189.813 37.7261 191.255 47.7851C192.759 58.308 193.448 66.5746 194.056 73.8698C194.827 83.1518 195.485 91.0298 197.535 100.349C195.379 91.362 194.313 83.6908 193.135 75.1734C192.132 67.9535 190.998 59.762 189.017 49.5212C186.88 38.4781 182.405 30.4309 175.718 25.5987C169.212 20.9045 160.738 19.3314 150.516 20.9108C140.87 22.4024 131.262 25.0472 121.974 27.598C111.501 30.4747 101.61 33.1948 92.629 34.0221C90.8051 34.1913 88.9311 34.348 86.9443 34.5172C76.6217 35.3946 64.9265 36.3848 53.8706 39.0798C41.0222 42.2072 31.7399 47.008 25.4975 53.7642C20.7906 58.8533 18.0705 66.418 17.1742 76.897C16.5412 84.3363 16.8608 92.4839 17.356 100.594C15.8142 80.9331 14.3914 60.7648 24.4508 50.3924L24.4445 50.4049ZM173.048 60.3888C168.247 54.6604 162.568 49.8972 156.169 46.2246C149.858 42.6083 142.882 40.0763 135.436 38.71C129.482 37.5944 123.24 37.0304 116.822 37.0304C115.117 37.0304 113.393 37.068 111.663 37.1495C103.785 37.513 95.6938 38.6975 87.6024 40.6717C82.0933 42.0192 76.7095 43.7866 71.5952 45.9425C66.4182 48.1236 61.4856 50.7057 56.9291 53.6263C52.2724 56.6096 47.9603 59.9751 44.112 63.629C40.151 67.3894 36.6349 71.4945 33.6578 75.844C30.3486 80.72 27.6096 86.2228 25.51 92.1955C23.5232 97.8738 22.0942 104.028 21.2732 110.496C21.2042 111.041 21.1416 111.593 21.0851 112.138C21.1666 110.578 21.2794 109.042 21.4173 107.544C22.7523 93.167 26.6319 81.422 32.9496 72.6352C38.8348 64.45 47.0327 57.4306 57.3177 51.7649C66.4621 46.726 76.9915 42.8903 88.6052 40.3521C102.413 37.3375 114.484 35.8709 125.508 35.8709C129.77 35.8709 133.926 36.0965 137.855 36.5415C153.731 38.3465 166.586 46.118 175.034 59.0162C180.757 67.7529 185.238 75.9506 188.992 84.7374C188.428 83.578 187.852 82.431 187.25 81.3029C183.402 74.0453 178.757 67.2014 173.048 60.3825V60.3888ZM187.093 82.9136C171.155 55.6068 141.679 38.6724 110.053 38.6724C105.283 38.6724 100.463 39.061 95.6311 39.8507C102.807 38.5533 109.909 37.8953 116.828 37.8953C123.177 37.8953 129.382 38.4531 135.267 39.5561C150.115 42.2887 162.944 49.6841 172.377 60.9403C178.275 67.9848 183.126 75.2048 187.093 82.9073V82.9136ZM86.5119 41.8437C51.4012 51.4139 26.9014 80.6762 21.7182 114.501C21.831 113.191 21.9689 111.888 22.1318 110.603C23.8241 97.3222 27.9418 85.7903 34.3723 76.3266C40.2199 67.7842 47.9666 60.395 57.3929 54.3533C66.1111 48.7691 75.9009 44.5637 86.5119 41.8374V41.8437ZM21.0287 163.606C22.2948 170.732 24.4007 177.243 27.2837 182.972C30.2107 188.782 34.0276 193.965 38.628 198.371C43.291 202.833 48.9067 206.65 55.3247 209.702C63.1277 213.406 71.0123 215.424 79.323 216.734C69.6898 215.412 60.7774 213.506 51.865 209.219C45.3969 206.105 39.8251 202.225 35.3062 197.694C30.85 193.225 27.2524 187.961 24.62 182.044C22.0253 176.222 20.2766 169.56 19.4054 162.239C18.5593 155.063 18.528 146.997 19.324 138.261C19.4995 136.349 19.5935 134.356 19.6374 132.288C19.7 135.096 19.7 137.803 19.606 140.379C19.2989 148.783 19.7752 156.599 21.0225 163.599L21.0287 163.606ZM55.5942 209.144C49.2389 206.117 43.6733 202.344 39.0604 197.926C34.5039 193.564 30.7309 188.443 27.8353 182.696C24.9836 177.024 22.8965 170.569 21.6367 163.499C20.3957 156.536 19.9257 148.771 20.2328 140.404C20.2641 139.476 20.2892 138.536 20.2954 137.577C20.3644 139.27 20.4145 140.93 20.4459 142.554C20.6025 150.588 21.5176 158.109 23.1534 164.909C24.8081 171.778 27.2461 178.09 30.405 183.667C33.5951 189.308 37.6064 194.347 42.3195 198.653C47.0891 203.002 52.7048 206.719 59.0162 209.683C66.0547 212.986 73.2435 215.01 80.7332 216.32C71.9837 215.029 63.7294 213.011 55.5816 209.144H55.5942ZM175.705 58.5775C167.125 45.4725 154.063 37.5819 137.943 35.7456C123.772 34.1349 107.577 35.3821 88.4235 39.5687C82.814 40.7908 77.3676 42.3514 72.2345 44.2002C66.7754 46.1619 61.6235 48.4745 56.9229 51.063C46.5313 56.785 38.2456 63.8859 32.2852 72.1651C28.9258 76.8343 26.2245 82.3621 24.2565 88.5856C22.4703 94.2199 21.2418 100.575 20.6025 107.469C20.5524 108.008 20.5085 108.547 20.4647 109.099C20.5211 107.231 20.6026 105.376 20.7342 103.533C21.7808 88.4477 25.3095 77.1288 31.5206 68.9374C37.4998 61.0468 46.1615 54.4035 57.2613 49.1828C66.343 44.9147 77.1545 41.5554 89.4075 39.1926C103.491 36.4726 119.448 33.3953 135.023 33.3953C136.853 33.3953 138.67 33.4392 140.419 33.5269C157.253 34.3542 170.146 42.508 177.698 57.111C183.395 68.1289 187.369 77.367 190.766 86.9247C186.786 77.1414 181.985 68.1791 175.699 58.5775H175.705ZM189.538 81.4408C186.435 73.3371 182.888 65.4967 178.369 56.7662C170.685 41.9126 157.579 33.6209 140.463 32.7811C123.114 31.9288 105.133 35.4009 89.2696 38.4593C76.9602 40.8347 66.086 44.2128 56.9479 48.5059C45.7353 53.7767 36.9796 60.4953 30.9314 68.4862C24.6326 76.8029 21.0538 88.2471 19.9946 103.483C19.9194 104.611 19.8567 105.739 19.8066 106.874C19.8191 102.518 19.9758 98.2059 20.3707 93.988C21.5552 81.3718 24.7391 71.9708 30.1041 65.2397C33.3194 61.2035 37.387 57.5371 42.2005 54.322C46.5251 51.439 51.5829 48.8381 57.23 46.6006C66.2866 43.0094 76.7721 40.2831 90.2223 38.0331C94.3839 37.3375 98.5894 36.5353 103.052 35.6829C116.107 33.1948 129.614 30.6251 142.989 30.4998C143.158 30.4998 143.327 30.4998 143.496 30.4998C161.02 30.4998 173.781 39.0485 180.406 55.2182C185.639 67.9848 188.917 77.8433 192.176 88.6921C191.305 86.1726 190.434 83.7785 189.544 81.4471L189.538 81.4408ZM181.032 54.955C177.598 46.5755 172.527 40.1766 165.953 35.9211C159.685 31.8661 152.133 29.8104 143.49 29.8104C143.321 29.8104 143.145 29.8104 142.976 29.8104C129.538 29.9357 116.007 32.5116 102.92 35.006C98.4641 35.8521 94.2586 36.6543 90.1094 37.35C76.6092 39.6125 66.086 42.3451 56.9793 45.9613C51.2884 48.2176 46.1866 50.8436 41.8244 53.7517C36.9545 56.9981 32.8305 60.7209 29.5777 64.8073C24.1249 71.6449 20.8971 81.165 19.7 93.9191C19.3741 97.3724 19.2112 100.895 19.1547 104.442C19.0357 98.6133 19.1171 92.8411 19.6562 87.3321C20.7718 75.8942 23.73 67.4583 28.6939 61.5294C35.0179 53.9835 44.3439 48.2552 57.2112 44.0122C68.148 40.4022 79.9372 38.4405 91.037 36.8612C97.5427 35.9336 104.33 34.4984 111.519 32.9691C122.625 30.6126 134.114 28.1809 145.533 27.4664C146.605 27.3975 147.67 27.3661 148.711 27.3661C157.059 27.3661 164.217 29.5221 169.983 33.7776C175.912 38.1585 180.331 44.7392 183.107 53.3317C187.175 65.904 189.556 75.2612 192.082 85.1636C192.571 87.0751 193.06 89.0055 193.568 90.9734C190.045 79.0968 186.673 68.7181 181.032 54.955ZM19.0795 126.635C19.161 130.74 19.1046 134.632 18.7787 138.21C17.9764 146.985 18.0078 155.088 18.8602 162.302C19.7314 169.679 21.4988 176.397 24.1186 182.27C26.7823 188.249 30.4112 193.57 34.9176 198.082C39.4803 202.658 45.1023 206.575 51.6268 209.715C61.2851 214.359 70.912 216.226 81.4477 217.568C69.4266 216.051 58.8846 214.515 48.1421 209.295C22.4703 196.779 13.0314 173.521 18.4277 136.105C18.8539 133.171 19.0357 129.988 19.0733 126.628L19.0795 126.635ZM59.3171 209.069C53.0683 206.13 47.5091 202.457 42.7896 198.151C38.1266 193.896 34.1655 188.913 31.0066 183.335C24.8143 172.392 21.4988 158.774 21.1416 142.855C21.1416 142.867 21.1416 142.873 21.1416 142.886C21.1917 143.5 21.2356 144.114 21.2857 144.722C22.4953 160.134 26.6068 173.477 33.5074 184.376C40.4894 195.4 50.3169 203.911 62.7203 209.664C67.2643 211.77 71.965 213.425 77.0918 214.722C78.8279 215.161 80.6079 215.562 82.4317 215.913C74.4218 214.622 66.7754 212.566 59.3171 209.063V209.069ZM63.0337 208.988C50.7619 203.297 41.041 194.88 34.1341 183.975C28.0045 174.292 24.0936 162.653 22.4891 149.329C24.714 162.979 29.446 175 36.5722 185.09C40.3077 190.38 44.72 195.137 49.6839 199.223C54.6791 203.341 60.3073 206.844 66.4182 209.639C72.0903 212.228 78.0695 214.177 84.5 215.531C76.5966 214.146 69.5457 211.996 63.0337 208.981V208.988ZM66.7566 208.912C54.6227 203.359 44.6887 195.193 37.2303 184.633C31.3702 176.335 27.1458 166.714 24.62 155.947C25.8798 160.441 27.4592 164.778 29.3395 168.902C32.116 174.993 35.5694 180.697 39.612 185.842C43.6232 190.944 48.2423 195.55 53.3504 199.536C58.4584 203.522 64.1055 206.919 70.1223 209.633C74.6286 211.664 79.3794 213.325 84.2556 214.578C84.9763 214.76 85.7034 214.935 86.4304 215.104C79.3544 213.751 72.8299 211.695 66.7566 208.925V208.912ZM70.4795 208.831C58.4647 203.416 48.305 195.494 40.2951 185.297C34.9238 178.453 30.6807 170.788 27.6096 162.402C38.722 189.089 61.8366 208.091 88.7619 214.71C82.369 213.4 76.2582 211.432 70.4795 208.831ZM81.6859 211.682C72.692 208.63 64.281 204.18 56.6972 198.446C49.0321 192.655 42.4135 185.717 37.0235 177.82C31.4454 169.654 27.2963 160.622 24.6952 150.977C21.5928 139.458 20.8344 127.681 22.4452 115.968C24.0058 104.649 27.6911 93.8689 33.4134 83.9227C39.1356 73.9764 46.6003 65.365 55.6004 58.3268C64.9202 51.0442 75.481 45.7733 87.0007 42.671C94.5531 40.6341 102.306 39.6 110.059 39.6C119.673 39.6 129.181 41.1731 138.319 44.2754C147.313 47.3276 155.724 51.7837 163.308 57.5121C170.973 63.3031 177.592 70.241 182.982 78.1379C188.56 86.3042 192.709 95.3355 195.304 104.981C198.406 116.5 199.164 128.277 197.554 139.99C195.993 151.309 192.308 162.089 186.586 172.035C180.863 181.982 173.399 190.593 164.398 197.631C155.079 204.914 144.518 210.185 132.998 213.287C125.446 215.324 117.687 216.358 109.94 216.358C100.326 216.358 90.8177 214.785 81.6796 211.689L81.6859 211.682ZM112.04 219.084C115.33 219.241 118.733 219.41 122.205 219.604C123.409 219.673 124.606 219.711 125.784 219.711C134.064 219.711 141.773 218 149.244 214.515C158.006 210.429 166.536 203.873 175.316 194.466C177.961 191.633 180.619 188.938 183.188 186.331C192.37 177.012 201.038 168.212 206.673 155.734C211.825 144.321 207.983 133.535 203.589 122.185C203.853 122.78 204.116 123.369 204.379 123.958C209.449 135.315 214.232 146.045 208.497 157.52C202.793 168.933 194.47 176.723 185.664 184.971C181.954 188.449 178.112 192.047 174.345 196.027C166.084 204.763 158.237 210.974 150.359 215.023C142.75 218.934 135.06 220.833 126.856 220.833C124.481 220.833 122.017 220.67 119.523 220.35C113.644 219.592 108.097 219.078 102.72 218.608C105.766 218.783 108.868 218.934 112.04 219.084ZM202.875 114.626C197.535 97.8675 198.149 87.4136 198.989 72.9423C199.478 64.6067 200.023 55.1555 199.66 42.3138C199.177 26.9525 195.134 16.4359 187.645 11.046C181.064 6.31412 171.951 5.64978 160.556 9.07802C151.744 11.7103 143.07 15.2137 134.684 18.6044C120.664 24.2701 107.408 29.6286 96.3018 29.6286C96.1952 29.6286 96.0887 29.6286 95.9884 29.6286C92.1715 29.591 87.5899 29.3278 82.7388 29.0458C62.338 27.8612 34.3911 26.2443 20.0635 39.0735C9.84747 48.2239 12.2417 68.693 14.5544 88.4978C16.3093 103.502 17.9639 117.672 14.6045 127.355C7.24018 148.595 5.00267 165.361 7.77291 178.622C10.6497 192.404 18.9479 202.614 33.1313 209.821C42.5264 214.597 51.7146 215.925 61.4418 217.329C73.0994 219.015 86.3113 220.927 102.851 229.081C110.473 232.835 117.48 234.684 124.336 234.684C127.627 234.684 130.886 234.257 134.158 233.411C145.414 230.497 157.673 222.306 171.631 208.361C178.883 201.078 187.319 196.353 195.479 191.79C205.864 185.98 215.673 180.49 223.326 170.168C232.758 157.445 224.341 146.615 215.435 135.152C214.683 134.187 213.931 133.215 213.179 132.238C214.432 133.817 215.723 135.371 217.002 136.919C226.516 148.42 235.497 159.275 225.532 172.104C217.516 182.47 206.823 187.992 196.476 193.332C187.701 197.863 178.626 202.551 170.948 210.197C156.088 224.963 143.703 233.129 131.97 235.887C121.616 238.325 111.808 236.583 100.181 230.246C82.6135 220.67 68.9252 218.696 56.8477 216.953C47.4777 215.6 38.6342 214.327 29.5212 209.652C15.1623 202.281 7.01454 191.865 4.62035 177.795C2.30136 164.189 5.35992 147.003 13.959 125.256C17.8824 115.335 15.858 99.6412 13.8963 84.4679C11.3391 64.6944 8.70051 44.2504 18.8288 35.5576C27.6284 28.0555 41.5048 26.0375 55.6944 26.0375C65.0017 26.0375 74.4532 26.9086 82.6887 27.6607C87.9033 28.137 92.8296 28.5945 96.8094 28.7324C97.173 28.7449 97.5365 28.7512 97.9 28.7512C109.25 28.7512 122.901 22.8348 137.329 16.58C145.684 12.9575 154.327 9.20963 163.12 6.32039C174.79 2.46597 184.041 2.91722 190.616 7.6616C198.199 13.133 202.06 24.1886 202.091 40.5088C202.091 54.3847 201.114 64.3497 200.242 73.1428C198.738 88.3662 197.742 98.4253 203.257 115.592C203.545 116.482 203.871 117.359 204.235 118.224C203.708 117.039 203.238 115.842 202.856 114.626H202.875ZM215.241 135.302C219.753 141.106 224.015 146.59 226.04 152.274C227.118 155.314 227.462 158.134 227.093 160.917C226.679 164.019 225.382 166.996 223.131 170.03C215.51 180.308 205.72 185.786 195.36 191.589C187.187 196.165 178.739 200.89 171.462 208.198C162.136 217.511 153.769 224.129 145.878 228.416C138.401 232.484 131.331 234.458 124.267 234.458C117.204 234.458 110.692 232.684 102.958 228.868C86.3803 220.695 73.1495 218.783 61.4731 217.091C51.7647 215.687 42.6016 214.365 33.2379 209.608C19.1234 202.432 10.8691 192.279 8.01108 178.572C5.25337 165.354 7.48461 148.627 14.8302 127.431C18.2084 117.697 16.5475 103.496 14.7863 88.4665C12.4798 68.7243 10.0919 48.3179 20.214 39.249C24.7642 35.1752 30.8437 32.3424 38.8035 30.5875C45.1901 29.1774 52.755 28.4943 61.9306 28.4943C69.1383 28.4943 76.3522 28.9142 82.72 29.2839C87.5711 29.566 92.1589 29.8292 95.9821 29.8668C96.0887 29.8668 96.1952 29.8668 96.3018 29.8668C107.452 29.8668 120.726 24.502 134.772 18.8237C143.152 15.4331 151.82 11.9359 160.625 9.30991C165.351 7.88722 169.732 7.16648 173.662 7.16648C181.603 7.16648 187.826 10.0871 192.157 15.8405C196.607 21.7569 199.052 30.669 199.421 42.32C199.785 55.1555 199.233 64.5942 198.751 72.9297C197.905 87.4261 197.297 97.8988 202.649 114.702C202.85 115.335 203.075 115.961 203.314 116.582C202.925 115.642 202.58 114.695 202.273 113.73C197.14 97.4664 197.297 87.2381 197.504 73.0739C197.623 65.1206 197.754 56.1144 197.002 44.1187C196.106 29.8167 191.932 19.8955 184.599 14.6372C178.049 9.93665 169.112 9.05922 158.049 12.0425C149.168 14.399 140.406 17.6768 131.933 20.8418C118.551 25.8369 105.916 30.5625 95.1485 30.7317C91.576 30.7881 87.4395 30.6941 83.0647 30.5938C63.0024 30.1363 35.5255 29.5158 21.4236 42.7525C11.2075 52.3415 13.3385 72.8169 15.4005 92.6217C16.8734 106.736 18.2585 120.066 15.4444 129.53C9.30219 150.181 7.88573 166.489 11.1135 179.393C14.4729 192.837 22.8902 202.783 36.8354 209.809C46.5627 214.697 56.1582 216.076 66.3116 217.53C77.4929 219.134 90.1659 220.952 105.622 227.733C112.579 230.785 119.015 232.29 125.295 232.29C128.993 232.29 132.635 231.769 136.295 230.729C147.2 227.639 158.927 219.673 172.158 206.38C178.983 199.467 186.774 194.736 194.307 190.16C204.266 184.112 213.674 178.397 220.944 168.106C229.763 155.621 221.959 144.873 213.699 133.491C212.859 132.338 212.019 131.172 211.186 130C212.508 131.793 213.881 133.554 215.241 135.302ZM213.454 133.667C217.635 139.426 221.583 144.86 223.445 150.476C225.532 156.768 224.661 162.315 220.7 167.924C213.467 178.165 204.084 183.862 194.15 189.891C186.598 194.479 178.795 199.217 171.945 206.155C162.825 215.318 154.602 221.817 146.805 226.035C139.404 230.033 132.353 231.982 125.258 231.982C119.09 231.982 112.71 230.497 105.747 227.445C90.2536 220.651 77.5556 218.827 66.3555 217.223C55.7822 215.706 46.6504 214.396 36.9733 209.527C23.1096 202.545 14.7424 192.661 11.4081 179.312C8.19911 166.464 9.61557 150.206 15.7389 129.612C18.5719 120.091 17.1805 106.736 15.7076 92.5904C13.6519 72.8608 11.5272 52.4543 21.6367 42.9718C26.8011 38.1272 34.0025 34.8243 43.6545 32.8689C53.2062 30.9385 63.6479 30.7129 70.6738 30.7129C74.9608 30.7129 79.0849 30.8069 83.071 30.8946C86.5495 30.9761 89.8337 31.0451 92.817 31.0451C93.6569 31.0451 94.4278 31.0451 95.1673 31.0263C105.985 30.8508 118.652 26.1252 132.052 21.1176C140.519 17.9526 149.269 14.6873 158.137 12.3308C162.368 11.1901 166.329 10.6135 169.926 10.6135C177.867 10.6135 184.173 13.3962 188.673 18.8801C193.304 24.527 196.006 33.0255 196.701 44.1313C197.453 56.1082 197.322 65.1143 197.203 73.0613C196.996 87.0814 196.845 97.2596 201.803 113.229C201.759 113.097 201.709 112.959 201.671 112.828C196.758 97.0903 196.432 87.0939 195.987 73.2556C195.742 65.6784 195.467 57.0859 194.345 45.9175C193.016 32.6746 188.716 23.3676 181.565 18.2471C175.053 13.5842 166.298 12.4937 155.542 14.9944C146.58 17.0814 137.705 20.1085 129.125 23.0417C116.533 27.3411 104.644 31.4023 94.3087 31.8285C91.1122 31.9601 87.5398 32.0102 83.7604 32.0604C73.5193 32.1983 61.9056 32.3549 50.9374 34.1913C38.1892 36.3284 28.976 40.327 22.7774 46.4251C12.5237 56.5093 14.3977 77.0599 16.209 96.9274C17.4124 110.083 18.5468 122.517 16.2717 131.692C11.3203 151.71 10.7124 167.554 14.404 180.126C18.2585 193.238 26.8011 202.94 40.527 209.777C50.6742 214.822 60.3261 216.182 71.5074 217.749C82.1183 219.241 94.1395 220.927 108.379 226.367C114.641 228.761 120.482 229.952 126.16 229.952C130.309 229.952 134.371 229.319 138.457 228.053C149.03 224.787 160.224 217.047 172.678 204.381C179.039 197.913 186.134 193.225 192.991 188.694C202.587 182.351 211.643 176.366 218.562 166.031C226.767 153.766 219.578 143.08 211.963 131.761C211.367 130.871 210.766 129.981 210.17 129.085C211.248 130.627 212.351 132.15 213.448 133.654L213.454 133.667ZM211.662 131.981C215.51 137.703 219.145 143.105 220.85 148.664C222.762 154.888 221.934 160.347 218.262 165.843C211.386 176.115 202.355 182.082 192.797 188.406C185.921 192.949 178.814 197.65 172.421 204.143C163.54 213.174 155.461 219.579 147.733 223.735C140.394 227.677 133.33 229.595 126.148 229.595C120.551 229.595 114.785 228.429 108.517 226.035C94.2335 220.576 82.1873 218.884 71.5638 217.392C60.4202 215.825 50.7932 214.478 40.6962 209.451C27.0706 202.658 18.5844 193.037 14.7612 180.026C11.0884 167.516 11.6964 151.735 16.6289 131.786C17.9451 126.453 18.1269 120.048 17.8072 113.047C18.2397 120.781 18.271 127.926 17.1053 133.873C13.3071 153.221 13.4952 168.594 17.6756 180.86C22.0315 193.651 30.7183 203.102 44.2249 209.765C54.9235 215.029 65.2336 216.421 77.1733 218.025C87.0697 219.36 98.2823 220.864 111.15 225.026C116.646 226.799 121.804 227.689 126.812 227.689C131.488 227.689 136.038 226.918 140.613 225.377C150.829 221.936 161.49 214.428 173.211 202.413C179.058 196.415 185.445 191.821 191.612 187.378C200.869 180.709 209.619 174.411 216.187 163.988C223.79 151.923 217.202 141.269 210.233 129.988C209.8 129.292 209.368 128.59 208.942 127.888C209.838 129.267 210.753 130.627 211.668 131.981H211.662ZM209.869 130.207C213.392 135.904 216.714 141.288 218.268 146.803C220.004 152.97 219.227 158.36 215.83 163.75C209.305 174.103 200.593 180.377 191.368 187.02C185.182 191.477 178.782 196.083 172.91 202.106C164.217 211.018 156.251 217.348 148.554 221.447C141.234 225.352 134.12 227.244 126.806 227.244C121.848 227.244 116.771 226.386 111.287 224.612C98.3826 220.444 87.1512 218.934 77.2359 217.599C65.3339 215.994 55.0614 214.616 44.4192 209.376C31.0192 202.77 22.4076 193.394 18.083 180.722C13.9276 168.526 13.7459 153.227 17.5252 133.955C18.3086 129.956 18.5593 125.431 18.5029 120.562C18.6847 126.183 18.6032 131.423 17.9326 136.042C12.4986 173.696 22.0253 197.117 47.9164 209.74C59.3609 215.305 70.5485 216.709 83.5035 218.326C92.911 219.504 102.638 220.72 113.901 223.666C118.545 224.882 122.945 225.489 127.219 225.489C132.516 225.489 137.617 224.556 142.757 222.675C152.609 219.072 162.738 211.789 173.725 200.42C178.996 194.967 184.618 190.549 190.051 186.275C199.045 179.205 207.544 172.524 213.793 161.913C220.8 150.018 214.808 139.364 208.472 128.082C208.196 127.587 207.92 127.092 207.638 126.597C208.371 127.807 209.111 129.01 209.851 130.207H209.869ZM208.058 128.327C211.255 134.018 214.282 139.401 215.679 144.891C217.24 151.033 216.513 156.361 213.385 161.669C207.181 172.204 198.719 178.854 189.763 185.892C184.317 190.173 178.682 194.604 173.386 200.082C164.862 208.9 156.978 215.167 149.281 219.228C141.936 223.108 134.715 224.994 127.201 224.994C122.964 224.994 118.658 224.405 114.039 223.202C102.745 220.25 92.5601 218.978 83.5724 217.856C83.0898 217.793 82.6072 217.737 82.1309 217.674C84.9701 218.031 87.8782 218.351 90.8741 218.677C98.9717 219.567 107.345 220.488 116.677 222.324C120.288 223.033 123.797 223.39 127.219 223.39C133.33 223.39 139.19 222.255 144.925 219.974C154.414 216.201 164.01 209.163 174.264 198.44C178.858 193.639 183.64 189.527 188.271 185.554C197.109 177.97 205.457 170.801 211.43 159.858C217.854 148.081 212.452 137.371 206.729 126.027C206.591 125.751 206.454 125.481 206.316 125.206C206.892 126.252 207.481 127.293 208.058 128.327ZM206.234 126.271C211.888 137.477 217.227 148.069 210.941 159.582C205.018 170.437 196.708 177.569 187.914 185.121C183.276 189.107 178.475 193.225 173.869 198.045C165.489 206.806 157.648 213.024 149.902 217.066C142.468 220.946 135.06 222.826 127.27 222.826C123.866 222.826 120.444 222.475 116.797 221.76C108.699 220.168 101.335 219.266 94.2397 218.47C96.1075 218.639 98.0003 218.802 99.9306 218.971C106.154 219.51 112.585 220.068 119.454 220.952C121.967 221.278 124.424 221.434 126.837 221.434C133.901 221.434 140.582 220.043 147.1 217.235C156.226 213.306 165.288 206.499 174.803 196.44C178.557 192.473 182.386 188.882 186.097 185.41C194.946 177.118 203.307 169.29 209.061 157.783C214.927 146.051 210.082 135.196 204.956 123.701C205.382 124.56 205.814 125.419 206.247 126.265L206.234 126.271ZM227.901 174.154C219.471 184.595 208.328 189.922 197.547 195.08C188.177 199.561 178.482 204.193 170.415 212.178C154.815 227.608 141.929 235.987 129.852 238.557C119.304 240.801 109.307 238.651 97.4424 231.588C78.9532 220.582 64.8638 218.57 52.4353 216.797C43.3411 215.499 34.7484 214.271 25.8485 209.658C11.2514 202.1 3.21642 191.414 1.27975 176.993C-0.600504 162.979 3.28536 145.349 13.1567 123.1C17.638 113.009 15.3002 96.5138 13.0376 80.5571C11.6337 70.6296 10.1796 60.3574 10.3802 51.7461C10.6058 42.1132 12.9374 35.6202 17.4939 31.8974C25.51 25.348 37.669 23.3926 50.5112 23.3926C61.517 23.3926 73.0242 24.8341 82.8579 26.0625C88.6115 26.7833 93.5816 27.4037 97.6618 27.6482C98.2384 27.6858 98.8213 27.6983 99.4167 27.6983C110.968 27.6983 124.988 21.2241 139.786 14.3927C148.159 10.5258 156.821 6.52721 165.658 3.36847C177.673 -0.924663 187.125 -0.67397 193.743 4.10801C201.477 9.70475 205.181 21.3369 204.755 38.6912C204.385 53.6514 202.887 64.6067 201.69 73.4061C199.584 88.8049 198.199 98.9768 203.871 116.494C204.047 117.033 204.235 117.566 204.442 118.092C204.084 117.246 203.765 116.388 203.489 115.523C197.986 98.4002 198.983 88.3599 200.481 73.1616C201.352 64.3623 202.336 54.3972 202.33 40.5025C202.298 24.1071 198.406 12.9951 190.766 7.47985C184.135 2.69786 174.821 2.23408 163.076 6.11357C154.27 9.00908 145.627 12.7569 137.266 16.3795C122.864 22.6218 109.232 28.5319 97.9251 28.5319C97.5615 28.5319 97.198 28.5319 96.8408 28.5131C92.8671 28.3752 87.9471 27.9239 82.7326 27.4413C61.8993 25.5235 33.3632 22.9038 18.716 35.3821C8.49995 44.1501 11.1448 64.6568 13.7083 84.4867C15.6637 99.6349 17.6881 115.297 13.7835 125.168C5.16562 146.953 2.10707 164.176 4.43232 177.82C6.83905 191.959 15.0244 202.426 29.446 209.827C38.5841 214.515 47.4526 215.794 56.8351 217.148C68.8939 218.89 82.5633 220.858 100.094 230.416C108.411 234.947 115.8 237.14 123.133 237.14C126.091 237.14 129.043 236.783 132.033 236.081C143.803 233.311 156.226 225.132 171.111 210.335C178.764 202.708 187.82 198.032 196.582 193.507C206.949 188.155 217.666 182.621 225.707 172.217C235.779 159.256 226.742 148.332 217.171 136.763C217.008 136.568 216.845 136.368 216.682 136.174C217.359 136.957 218.042 137.734 218.719 138.505C228.873 150.1 238.462 161.055 227.907 174.129L227.901 174.154Z" fill="url(#paint0_radial_10_4814)"/>
<defs>
<radialGradient id="paint0_radial_10_4814" cx="0" cy="0" r="1" gradientUnits="userSpaceOnUse" gradientTransform="translate(116.659 119.866) scale(117.942 117.939)">
<stop offset="0.13" stop-color="#563C70"/>
<stop offset="0.32" stop-color="#E1813B"/>
<stop offset="0.74" stop-color="#FF902F"/>
<stop offset="0.76" stop-color="#F99336"/>
<stop offset="0.8" stop-color="#EA9E4C"/>
<stop offset="0.84" stop-color="#D2B070"/>
<stop offset="0.89" stop-color="#B1C8A0"/>
<stop offset="0.94" stop-color="#8BE4D9"/>
</radialGradient>
</defs>
</svg>
